<mxfile host="app.diagrams.net" modified="2021-03-25T05:55:02.344Z" agent="5.0 (Windows NT 10.0; Win64; x64) AppleWebKit/537.36 (KHTML, like Gecko) Chrome/89.0.4389.90 Safari/537.36" etag="LL8UUiexLvZ6vTsswlT2" version="14.5.1" type="github">
  <diagram id="C5RBs43oDa-KdzZeNtuy" name="Page-1">
    <mxGraphModel dx="1422" dy="526" grid="1" gridSize="10" guides="1" tooltips="1" connect="1" arrows="1" fold="1" page="1" pageScale="1" pageWidth="827" pageHeight="1169" math="0" shadow="0">
      <root>
        <mxCell id="WIyWlLk6GJQsqaUBKTNV-0" />
        <mxCell id="WIyWlLk6GJQsqaUBKTNV-1" parent="WIyWlLk6GJQsqaUBKTNV-0" />
        <mxCell id="tY8or2dxc5fbOtywsdqu-50" value="&lt;i&gt;Compute Pipeline&lt;/i&gt;" style="swimlane;html=1;startSize=20;horizontal=1;containerType=tree;fontSize=10;fontColor=#0055FF;align=center;" vertex="1" parent="WIyWlLk6GJQsqaUBKTNV-1">
          <mxGeometry x="330" y="30" width="310" height="170" as="geometry" />
        </mxCell>
        <mxCell id="tY8or2dxc5fbOtywsdqu-52" value="&lt;span style=&quot;color: rgba(0 , 0 , 0 , 0) ; font-family: monospace ; font-size: 0px&quot;&gt;%3CmxGraphModel%3E%3Croot%3E%3CmxCell%20id%3D%220%22%2F%3E%3CmxCell%20id%3D%221%22%20parent%3D%220%22%2F%3E%3CmxCell%20id%3D%222%22%20value%3D%22%22%20style%3D%22endArrow%3Dnone%3Bdashed%3D1%3Bhtml%3D1%3BdashPattern%3D1%203%3BstrokeWidth%3D2%3B%22%20edge%3D%221%22%20parent%3D%221%22%3E%3CmxGeometry%20width%3D%2250%22%20height%3D%2250%22%20relative%3D%221%22%20as%3D%22geometry%22%3E%3CmxPoint%20x%3D%22380%22%20y%3D%22109.71000000000004%22%20as%3D%22sourcePoint%22%2F%3E%3CmxPoint%20x%3D%22420%22%20y%3D%22109.71000000000004%22%20as%3D%22targetPoint%22%2F%3E%3C%2FmxGeometry%3E%3C%2FmxCell%3E%3CmxCell%20id%3D%223%22%20style%3D%22edgeStyle%3DorthogonalEdgeStyle%3Brounded%3D0%3BorthogonalLoop%3D1%3BjettySize%3Dauto%3Bhtml%3D1%3BfontSize%3D10%3BfontColor%3D%230055FF%3B%22%20edge%3D%221%22%20source%3D%224%22%20parent%3D%221%22%3E%3CmxGeometry%20relative%3D%221%22%20as%3D%22geometry%22%3E%3CmxPoint%20x%3D%22275%22%20y%3D%22197%22%20as%3D%22targetPoint%22%2F%3E%3C%2FmxGeometry%3E%3C%2FmxCell%3E%3CmxCell%20id%3D%224%22%20value%3D%22%22%20style%3D%22shape%3DcurlyBracket%3BwhiteSpace%3Dwrap%3Bhtml%3D1%3Brounded%3D1%3BfontSize%3D23%3Balign%3Dleft%3Brotation%3D-90%3B%22%20vertex%3D%221%22%20parent%3D%221%22%3E%3CmxGeometry%20x%3D%22265.32%22%20y%3D%2222.19%22%20width%3D%2219.38%22%20height%3D%22290%22%20as%3D%22geometry%22%2F%3E%3C%2FmxCell%3E%3CmxCell%20id%3D%225%22%20value%3D%22%22%20style%3D%22group%22%20vertex%3D%221%22%20connectable%3D%220%22%20parent%3D%221%22%3E%3CmxGeometry%20x%3D%22140%22%20y%3D%2270%22%20width%3D%22110%22%20height%3D%2280%22%20as%3D%22geometry%22%2F%3E%3C%2FmxCell%3E%3CmxCell%20id%3D%226%22%20value%3D%22%26lt%3Bspan%20style%3D%26quot%3Bcolor%3A%20rgb(0%20%2C%200%20%2C%200)%20%3B%20font-family%3A%20%26amp%3B%2334%3Bhelvetica%26amp%3B%2334%3B%20%3B%20text-align%3A%20center%26quot%3B%26gt%3B%26lt%3Bfont%20style%3D%26quot%3Bfont-size%3A%2010px%26quot%3B%26gt%3B%26lt%3Bb%26gt%3Bstruct%20InsData%26lt%3B%2Fb%26gt%3B%26lt%3B%2Ffont%26gt%3B%26lt%3B%2Fspan%26gt%3B%26lt%3Bspan%20style%3D%26quot%3Bcolor%3A%20rgb(0%20%2C%200%20%2C%200)%20%3B%20font-family%3A%20%26amp%3B%2334%3Bhelvetica%26amp%3B%2334%3B%20%3B%20font-size%3A%2012px%26quot%3B%26gt%3B%26lt%3Bbr%26gt%3B%26lt%3B%2Fspan%26gt%3B%22%20style%3D%22rounded%3D0%3BwhiteSpace%3Dwrap%3Bhtml%3D1%3BfontSize%3D10%3BfontColor%3D%230055FF%3Balign%3Dleft%3B%22%20vertex%3D%221%22%20parent%3D%225%22%3E%3CmxGeometry%20width%3D%22110%22%20height%3D%2220%22%20as%3D%22geometry%22%2F%3E%3C%2FmxCell%3E%3CmxCell%20id%3D%227%22%20value%3D%22%26lt%3Bfont%20style%3D%26quot%3Bfont-size%3A%2010px%26quot%3B%26gt%3B%26lt%3Bspan%20style%3D%26quot%3Bcolor%3A%20rgb(0%20%2C%200%20%2C%200)%26quot%3B%26gt%3Bvec3%20Position%3B%26lt%3B%2Fspan%26gt%3B%26lt%3Bbr%20style%3D%26quot%3Bcolor%3A%20rgb(0%20%2C%200%20%2C%200)%26quot%3B%26gt%3B%26lt%3B%2Ffont%26gt%3B%26lt%3Bdiv%20style%3D%26quot%3Bcolor%3A%20rgb(0%20%2C%200%20%2C%200)%26quot%3B%26gt%3B%26lt%3Bfont%20style%3D%26quot%3Bfont-size%3A%2010px%26quot%3B%26gt%3Bvec3%20Scale%3B%26lt%3B%2Ffont%26gt%3B%26lt%3B%2Fdiv%26gt%3B%26lt%3Bdiv%20style%3D%26quot%3Bcolor%3A%20rgb(0%20%2C%200%20%2C%200)%26quot%3B%26gt%3B%26lt%3Bfont%20style%3D%26quot%3Bfont-size%3A%2010px%26quot%3B%26gt%3Bvec3%20Rotation%3B%26lt%3B%2Ffont%26gt%3B%26lt%3B%2Fdiv%26gt%3B%26lt%3Bdiv%20style%3D%26quot%3Bcolor%3A%20rgb(0%20%2C%200%20%2C%200)%26quot%3B%26gt%3B%26lt%3Bfont%20style%3D%26quot%3Bfont-size%3A%2010px%26quot%3B%26gt%3Bmat4%20aInstanceMatrix%3B%26lt%3B%2Ffont%26gt%3B%26lt%3B%2Fdiv%26gt%3B%22%20style%3D%22rounded%3D0%3BwhiteSpace%3Dwrap%3Bhtml%3D1%3BfontSize%3D10%3BfontColor%3D%230055FF%3Balign%3Dleft%3B%22%20vertex%3D%221%22%20parent%3D%225%22%3E%3CmxGeometry%20y%3D%2220%22%20width%3D%22110%22%20height%3D%2260%22%20as%3D%22geometry%22%2F%3E%3C%2FmxCell%3E%3CmxCell%20id%3D%228%22%20value%3D%22%22%20style%3D%22group%22%20vertex%3D%221%22%20connectable%3D%220%22%20parent%3D%221%22%3E%3CmxGeometry%20x%3D%22260%22%20y%3D%2270%22%20width%3D%22110%22%20height%3D%2280%22%20as%3D%22geometry%22%2F%3E%3C%2FmxCell%3E%3CmxCell%20id%3D%229%22%20value%3D%22%26lt%3Bspan%20style%3D%26quot%3Bcolor%3A%20rgb(0%20%2C%200%20%2C%200)%20%3B%20font-family%3A%20%26amp%3B%2334%3Bhelvetica%26amp%3B%2334%3B%20%3B%20text-align%3A%20center%26quot%3B%26gt%3B%26lt%3Bfont%20style%3D%26quot%3Bfont-size%3A%2010px%26quot%3B%26gt%3B%26lt%3Bb%26gt%3Bstruct%20InsData%26lt%3B%2Fb%26gt%3B%26lt%3B%2Ffont%26gt%3B%26lt%3B%2Fspan%26gt%3B%26lt%3Bspan%20style%3D%26quot%3Bcolor%3A%20rgb(0%20%2C%200%20%2C%200)%20%3B%20font-family%3A%20%26amp%3B%2334%3Bhelvetica%26amp%3B%2334%3B%20%3B%20font-size%3A%2012px%26quot%3B%26gt%3B%26lt%3Bbr%26gt%3B%26lt%3B%2Fspan%26gt%3B%22%20style%3D%22rounded%3D0%3BwhiteSpace%3Dwrap%3Bhtml%3D1%3BfontSize%3D10%3BfontColor%3D%230055FF%3Balign%3Dleft%3B%22%20vertex%3D%221%22%20parent%3D%228%22%3E%3CmxGeometry%20width%3D%22110%22%20height%3D%2220%22%20as%3D%22geometry%22%2F%3E%3C%2FmxCell%3E%3CmxCell%20id%3D%2210%22%20value%3D%22%26lt%3Bfont%20style%3D%26quot%3Bfont-size%3A%2010px%26quot%3B%26gt%3B%26lt%3Bspan%20style%3D%26quot%3Bcolor%3A%20rgb(0%20%2C%200%20%2C%200)%26quot%3B%26gt%3Bvec3%20Position%3B%26lt%3B%2Fspan%26gt%3B%26lt%3Bbr%20style%3D%26quot%3Bcolor%3A%20rgb(0%20%2C%200%20%2C%200)%26quot%3B%26gt%3B%26lt%3B%2Ffont%26gt%3B%26lt%3Bdiv%20style%3D%26quot%3Bcolor%3A%20rgb(0%20%2C%200%20%2C%200)%26quot%3B%26gt%3B%26lt%3Bfont%20style%3D%26quot%3Bfont-size%3A%2010px%26quot%3B%26gt%3Bvec3%20Scale%3B%26lt%3B%2Ffont%26gt%3B%26lt%3B%2Fdiv%26gt%3B%26lt%3Bdiv%20style%3D%26quot%3Bcolor%3A%20rgb(0%20%2C%200%20%2C%200)%26quot%3B%26gt%3B%26lt%3Bfont%20style%3D%26quot%3Bfont-size%3A%2010px%26quot%3B%26gt%3Bvec3%20Rotation%3B%26lt%3B%2Ffont%26gt%3B%26lt%3B%2Fdiv%26gt%3B%26lt%3Bdiv%20style%3D%26quot%3Bcolor%3A%20rgb(0%20%2C%200%20%2C%200)%26quot%3B%26gt%3B%26lt%3Bfont%20style%3D%26quot%3Bfont-size%3A%2010px%26quot%3B%26gt%3Bmat4%20aInstanceMatrix%3B%26lt%3B%2Ffont%26gt%3B%26lt%3B%2Fdiv%26gt%3B%22%20style%3D%22rounded%3D0%3BwhiteSpace%3Dwrap%3Bhtml%3D1%3BfontSize%3D10%3BfontColor%3D%230055FF%3Balign%3Dleft%3B%22%20vertex%3D%221%22%20parent%3D%228%22%3E%3CmxGeometry%20y%3D%2220%22%20width%3D%22110%22%20height%3D%2260%22%20as%3D%22geometry%22%2F%3E%3C%2FmxCell%3E%3CmxCell%20id%3D%2211%22%20value%3D%22float%22%20style%3D%22rounded%3D0%3BwhiteSpace%3Dwrap%3Bhtml%3D1%3BfontSize%3D10%3BfontColor%3D%230055FF%3Balign%3Dcenter%3B%22%20vertex%3D%221%22%20parent%3D%221%22%3E%3CmxGeometry%20x%3D%22177%22%20y%3D%22210%22%20width%3D%2230%22%20height%3D%2210%22%20as%3D%22geometry%22%2F%3E%3C%2FmxCell%3E%3CmxCell%20id%3D%2212%22%20value%3D%22float%22%20style%3D%22rounded%3D0%3BwhiteSpace%3Dwrap%3Bhtml%3D1%3BfontSize%3D10%3BfontColor%3D%230055FF%3Balign%3Dcenter%3B%22%20vertex%3D%221%22%20parent%3D%221%22%3E%3CmxGeometry%20x%3D%22207%22%20y%3D%22210%22%20width%3D%2230%22%20height%3D%2210%22%20as%3D%22geometry%22%2F%3E%3C%2FmxCell%3E%3CmxCell%20id%3D%2213%22%20value%3D%22float%22%20style%3D%22rounded%3D0%3BwhiteSpace%3Dwrap%3Bhtml%3D1%3BfontSize%3D10%3BfontColor%3D%230055FF%3Balign%3Dcenter%3B%22%20vertex%3D%221%22%20parent%3D%221%22%3E%3CmxGeometry%20x%3D%22237%22%20y%3D%22210%22%20width%3D%2230%22%20height%3D%2210%22%20as%3D%22geometry%22%2F%3E%3C%2FmxCell%3E%3CmxCell%20id%3D%2214%22%20value%3D%22float%22%20style%3D%22rounded%3D0%3BwhiteSpace%3Dwrap%3Bhtml%3D1%3BfontSize%3D10%3BfontColor%3D%230055FF%3Balign%3Dcenter%3B%22%20vertex%3D%221%22%20parent%3D%221%22%3E%3CmxGeometry%20x%3D%22267%22%20y%3D%22210%22%20width%3D%2230%22%20height%3D%2210%22%20as%3D%22geometry%22%2F%3E%3C%2FmxCell%3E%3CmxCell%20id%3D%2215%22%20value%3D%22%22%20style%3D%22endArrow%3Dnone%3Bdashed%3D1%3Bhtml%3D1%3BdashPattern%3D1%203%3BstrokeWidth%3D2%3B%22%20edge%3D%221%22%20parent%3D%221%22%3E%3CmxGeometry%20width%3D%2250%22%20height%3D%2250%22%20relative%3D%221%22%20as%3D%22geometry%22%3E%3CmxPoint%20x%3D%22302%22%20y%3D%22214.71000000000004%22%20as%3D%22sourcePoint%22%2F%3E%3CmxPoint%20x%3D%22337%22%20y%3D%22215%22%20as%3D%22targetPoint%22%2F%3E%3C%2FmxGeometry%3E%3C%2FmxCell%3E%3CmxCell%20id%3D%2216%22%20value%3D%22float%22%20style%3D%22rounded%3D0%3BwhiteSpace%3Dwrap%3Bhtml%3D1%3BfontSize%3D10%3BfontColor%3D%230055FF%3Balign%3Dcenter%3B%22%20vertex%3D%221%22%20parent%3D%221%22%3E%3CmxGeometry%20x%3D%22340%22%20y%3D%22210%22%20width%3D%2230%22%20height%3D%2210%22%20as%3D%22geometry%22%2F%3E%3C%2FmxCell%3E%3C%2Froot%3E%3C%2FmxGraphModel%3E&lt;/span&gt;" style="whiteSpace=wrap;html=1;treeFolding=1;treeMoving=1;newEdgeStyle={&quot;edgeStyle&quot;:&quot;elbowEdgeStyle&quot;,&quot;startArrow&quot;:&quot;none&quot;,&quot;endArrow&quot;:&quot;none&quot;};" vertex="1" parent="tY8or2dxc5fbOtywsdqu-50">
          <mxGeometry x="-190" y="50" width="150" height="80" as="geometry" />
        </mxCell>
        <mxCell id="tY8or2dxc5fbOtywsdqu-72" value="" style="endArrow=none;dashed=1;html=1;dashPattern=1 3;strokeWidth=2;" edge="1" parent="tY8or2dxc5fbOtywsdqu-50">
          <mxGeometry width="50" height="50" relative="1" as="geometry">
            <mxPoint x="-67.5" y="89.83000000000003" as="sourcePoint" />
            <mxPoint x="-47.5" y="90.11999999999999" as="targetPoint" />
          </mxGeometry>
        </mxCell>
        <mxCell id="tY8or2dxc5fbOtywsdqu-75" value="&lt;font style=&quot;font-size: 10px&quot;&gt;&lt;b&gt;vec3 &lt;/b&gt;&lt;font color=&quot;#000000&quot;&gt;Position;&lt;/font&gt;&lt;br style=&quot;color: rgb(0 , 0 , 0)&quot;&gt;&lt;/font&gt;&lt;div&gt;&lt;font style=&quot;font-size: 10px&quot;&gt;&lt;b&gt;vec3&lt;/b&gt; &lt;font color=&quot;#000000&quot;&gt;Scale;&lt;/font&gt;&lt;/font&gt;&lt;/div&gt;&lt;div&gt;&lt;font style=&quot;font-size: 10px&quot;&gt;&lt;b&gt;vec3&lt;/b&gt; &lt;font color=&quot;#000000&quot;&gt;Rotation;&lt;/font&gt;&lt;/font&gt;&lt;/div&gt;&lt;div&gt;&lt;font style=&quot;font-size: 10px&quot;&gt;&lt;b&gt;mat4&lt;/b&gt; &lt;font color=&quot;#000000&quot;&gt;aInstanceMatrix;&lt;/font&gt;&lt;/font&gt;&lt;/div&gt;" style="rounded=0;whiteSpace=wrap;html=1;fontSize=10;fontColor=#0055FF;align=left;" vertex="1" parent="tY8or2dxc5fbOtywsdqu-50">
          <mxGeometry x="-182.5" y="73.0425" width="110" height="50.8575" as="geometry" />
        </mxCell>
        <mxCell id="tY8or2dxc5fbOtywsdqu-73" value="" style="group" vertex="1" connectable="0" parent="tY8or2dxc5fbOtywsdqu-50">
          <mxGeometry x="-182.5" y="56.09" width="110" height="67.81" as="geometry" />
        </mxCell>
        <mxCell id="tY8or2dxc5fbOtywsdqu-74" value="&lt;span style=&quot;font-family: &amp;#34;helvetica&amp;#34; ; text-align: center&quot;&gt;&lt;font style=&quot;font-size: 10px&quot;&gt;&lt;b&gt;&lt;i&gt;struct &lt;font color=&quot;#000000&quot;&gt;InsData&lt;/font&gt;&lt;/i&gt;&lt;/b&gt;&lt;/font&gt;&lt;/span&gt;&lt;span style=&quot;color: rgb(0 , 0 , 0) ; font-family: &amp;#34;helvetica&amp;#34; ; font-size: 12px&quot;&gt;&lt;br&gt;&lt;/span&gt;" style="rounded=0;whiteSpace=wrap;html=1;fontSize=10;fontColor=#0055FF;align=left;" vertex="1" parent="tY8or2dxc5fbOtywsdqu-73">
          <mxGeometry width="110" height="16.9525" as="geometry" />
        </mxCell>
        <mxCell id="tY8or2dxc5fbOtywsdqu-99" value="&lt;b&gt;&lt;i&gt;Instances&lt;/i&gt;&lt;/b&gt;" style="rounded=0;whiteSpace=wrap;html=1;fontSize=16;fontColor=#0055FF;align=center;" vertex="1" parent="tY8or2dxc5fbOtywsdqu-50">
          <mxGeometry x="-190" y="30" width="150" height="20" as="geometry" />
        </mxCell>
        <mxCell id="tY8or2dxc5fbOtywsdqu-71" value="" style="shape=flexArrow;endArrow=classic;html=1;fontSize=10;fontColor=#0055FF;" edge="1" parent="tY8or2dxc5fbOtywsdqu-50">
          <mxGeometry width="50" height="50" relative="1" as="geometry">
            <mxPoint x="-30" y="90" as="sourcePoint" />
            <mxPoint x="14.990000000000009" y="90.12" as="targetPoint" />
          </mxGeometry>
        </mxCell>
        <mxCell id="tY8or2dxc5fbOtywsdqu-100" value="" style="rounded=0;whiteSpace=wrap;html=1;fontSize=16;fontColor=#0055FF;align=center;" vertex="1" parent="WIyWlLk6GJQsqaUBKTNV-1">
          <mxGeometry x="200" y="240" width="370" height="40" as="geometry" />
        </mxCell>
        <mxCell id="tY8or2dxc5fbOtywsdqu-101" value="&lt;b&gt;float&lt;/b&gt;" style="rounded=0;whiteSpace=wrap;html=1;fontSize=10;fontColor=#0055FF;align=center;" vertex="1" parent="WIyWlLk6GJQsqaUBKTNV-1">
          <mxGeometry x="347.49" y="115" width="30" height="10" as="geometry" />
        </mxCell>
        <mxCell id="tY8or2dxc5fbOtywsdqu-102" value="&lt;b&gt;float&lt;/b&gt;" style="rounded=0;whiteSpace=wrap;html=1;fontSize=10;fontColor=#0055FF;align=center;" vertex="1" parent="WIyWlLk6GJQsqaUBKTNV-1">
          <mxGeometry x="377.49" y="115" width="30" height="10" as="geometry" />
        </mxCell>
        <mxCell id="tY8or2dxc5fbOtywsdqu-103" value="&lt;b&gt;float&lt;/b&gt;" style="rounded=0;whiteSpace=wrap;html=1;fontSize=10;fontColor=#0055FF;align=center;" vertex="1" parent="WIyWlLk6GJQsqaUBKTNV-1">
          <mxGeometry x="407.49" y="115" width="30" height="10" as="geometry" />
        </mxCell>
        <mxCell id="tY8or2dxc5fbOtywsdqu-104" value="" style="endArrow=none;dashed=1;html=1;dashPattern=1 3;strokeWidth=2;" edge="1" parent="WIyWlLk6GJQsqaUBKTNV-1">
          <mxGeometry width="50" height="50" relative="1" as="geometry">
            <mxPoint x="437.4899999999998" y="120" as="sourcePoint" />
            <mxPoint x="457.4899999999998" y="120" as="targetPoint" />
          </mxGeometry>
        </mxCell>
        <mxCell id="tY8or2dxc5fbOtywsdqu-105" value="&lt;b&gt;float&lt;/b&gt;" style="rounded=0;whiteSpace=wrap;html=1;fontSize=10;fontColor=#0055FF;align=center;" vertex="1" parent="WIyWlLk6GJQsqaUBKTNV-1">
          <mxGeometry x="457.49" y="115" width="30" height="10" as="geometry" />
        </mxCell>
        <mxCell id="tY8or2dxc5fbOtywsdqu-106" value="&lt;span style=&quot;color: rgb(0 , 0 , 0) ; font-size: 12px&quot;&gt;&lt;b&gt;&lt;br&gt;Compute Shader&lt;/b&gt;&lt;/span&gt;" style="shape=note;whiteSpace=wrap;html=1;backgroundOutline=1;darkOpacity=0.05;fontSize=10;fontColor=#0055FF;align=center;" vertex="1" parent="WIyWlLk6GJQsqaUBKTNV-1">
          <mxGeometry x="547.49" y="80" width="70" height="80" as="geometry" />
        </mxCell>
        <mxCell id="tY8or2dxc5fbOtywsdqu-107" value="" style="shape=flexArrow;endArrow=classic;html=1;fontSize=10;fontColor=#0055FF;" edge="1" parent="WIyWlLk6GJQsqaUBKTNV-1">
          <mxGeometry width="50" height="50" relative="1" as="geometry">
            <mxPoint x="497.4899999999998" y="119.88" as="sourcePoint" />
            <mxPoint x="542.48" y="120" as="targetPoint" />
          </mxGeometry>
        </mxCell>
        <mxCell id="tY8or2dxc5fbOtywsdqu-108" value="&lt;font style=&quot;font-size: 10px&quot;&gt;&lt;b style=&quot;text-align: left&quot;&gt;mat4&lt;/b&gt;&lt;span style=&quot;text-align: left&quot;&gt;&amp;nbsp;&lt;/span&gt;&lt;font color=&quot;#000000&quot; style=&quot;text-align: left ; font-size: 10px&quot;&gt;aInstanceMatrix;&lt;/font&gt;&lt;/font&gt;" style="rounded=0;whiteSpace=wrap;html=1;fontSize=10;fontColor=#0055FF;align=center;" vertex="1" parent="WIyWlLk6GJQsqaUBKTNV-1">
          <mxGeometry x="204.99" y="250" width="110" height="20" as="geometry" />
        </mxCell>
        <mxCell id="tY8or2dxc5fbOtywsdqu-109" value="&lt;b style=&quot;text-align: left&quot;&gt;mat4&lt;/b&gt;&lt;span style=&quot;text-align: left&quot;&gt;&amp;nbsp;&lt;/span&gt;&lt;font color=&quot;#000000&quot; style=&quot;text-align: left&quot;&gt;aInstanceMatrix;&lt;/font&gt;" style="rounded=0;whiteSpace=wrap;html=1;fontSize=10;fontColor=#0055FF;align=center;" vertex="1" parent="WIyWlLk6GJQsqaUBKTNV-1">
          <mxGeometry x="314.99" y="250" width="110" height="20" as="geometry" />
        </mxCell>
        <mxCell id="tY8or2dxc5fbOtywsdqu-110" value="" style="endArrow=none;dashed=1;html=1;dashPattern=1 3;strokeWidth=2;" edge="1" parent="WIyWlLk6GJQsqaUBKTNV-1">
          <mxGeometry width="50" height="50" relative="1" as="geometry">
            <mxPoint x="432.49000000000024" y="259.83000000000004" as="sourcePoint" />
            <mxPoint x="452.49000000000024" y="259.83000000000004" as="targetPoint" />
          </mxGeometry>
        </mxCell>
        <mxCell id="tY8or2dxc5fbOtywsdqu-111" value="&lt;b style=&quot;text-align: left&quot;&gt;mat4&lt;/b&gt;&lt;span style=&quot;text-align: left&quot;&gt;&amp;nbsp;&lt;/span&gt;&lt;font color=&quot;#000000&quot; style=&quot;text-align: left&quot;&gt;aInstanceMatrix;&lt;/font&gt;" style="rounded=0;whiteSpace=wrap;html=1;fontSize=10;fontColor=#0055FF;align=center;" vertex="1" parent="WIyWlLk6GJQsqaUBKTNV-1">
          <mxGeometry x="454.99" y="250" width="110" height="20" as="geometry" />
        </mxCell>
        <mxCell id="tY8or2dxc5fbOtywsdqu-112" value="&lt;b&gt;&lt;i&gt;SSBO&amp;nbsp;&lt;/i&gt;&lt;/b&gt;" style="rounded=0;whiteSpace=wrap;html=1;fontSize=16;fontColor=#0055FF;align=center;" vertex="1" parent="WIyWlLk6GJQsqaUBKTNV-1">
          <mxGeometry x="200" y="220" width="370" height="20" as="geometry" />
        </mxCell>
        <mxCell id="tY8or2dxc5fbOtywsdqu-113" style="edgeStyle=orthogonalEdgeStyle;rounded=0;orthogonalLoop=1;jettySize=auto;html=1;fontSize=10;fontColor=#0055FF;entryX=0.5;entryY=0;entryDx=0;entryDy=0;" edge="1" parent="WIyWlLk6GJQsqaUBKTNV-1" source="tY8or2dxc5fbOtywsdqu-106" target="tY8or2dxc5fbOtywsdqu-112">
          <mxGeometry relative="1" as="geometry">
            <mxPoint x="80" y="200" as="targetPoint" />
            <Array as="points">
              <mxPoint x="582" y="180" />
              <mxPoint x="385" y="180" />
            </Array>
          </mxGeometry>
        </mxCell>
        <mxCell id="tY8or2dxc5fbOtywsdqu-114" value="&lt;span style=&quot;color: rgb(0 , 0 , 0) ; font-size: 12px&quot;&gt;&lt;b&gt;&lt;br&gt;Vertex&lt;br&gt;Shader&lt;/b&gt;&lt;/span&gt;" style="shape=note;whiteSpace=wrap;html=1;backgroundOutline=1;darkOpacity=0.05;fontSize=10;fontColor=#0055FF;align=center;" vertex="1" parent="WIyWlLk6GJQsqaUBKTNV-1">
          <mxGeometry x="350" y="350" width="70" height="80" as="geometry" />
        </mxCell>
        <mxCell id="tY8or2dxc5fbOtywsdqu-115" value="" style="shape=flexArrow;endArrow=classic;html=1;fontSize=10;fontColor=#0055FF;" edge="1" parent="WIyWlLk6GJQsqaUBKTNV-1">
          <mxGeometry width="50" height="50" relative="1" as="geometry">
            <mxPoint x="384.6700000000001" y="290" as="sourcePoint" />
            <mxPoint x="384.65999999999985" y="339.78" as="targetPoint" />
          </mxGeometry>
        </mxCell>
      </root>
    </mxGraphModel>
  </diagram>
</mxfile>
